# Blender v2.91.0 OBJ File: ''
# www.blender.org
mtllib Piramide.mtl
o Cone
v 0.301118 -0.079687 -0.907354
v 0.483808 -0.027943 -0.858606
v 0.652416 0.025609 -0.774149
v 0.800461 0.078912 -0.657226
v 0.922255 0.129917 -0.512333
v 1.013116 0.176665 -0.345036
v 1.069554 0.217359 -0.161765
v 1.089399 0.250435 0.030437
v 1.071889 0.274622 0.224184
v 1.017696 0.288990 0.412030
v 0.928904 0.292987 0.586756
v 0.808924 0.286461 0.741649
v 0.662367 0.269660 0.870754
v 0.494866 0.243232 0.969112
v 0.312856 0.208192 1.032942
v 0.123334 0.165885 1.059791
v -0.066419 0.117939 1.048627
v -0.249109 0.066196 0.999879
v -0.417717 0.012644 0.915421
v -0.565762 -0.040659 0.798499
v -0.687556 -0.091665 0.653605
v -0.778417 -0.138413 0.486308
v -0.834855 -0.179107 0.303037
v -0.854700 -0.212182 0.110835
v -0.837189 -0.236369 -0.082912
v -0.782996 -0.250737 -0.270758
v -0.694204 -0.254735 -0.445484
v -0.574224 -0.248208 -0.600377
v -0.427667 -0.231408 -0.729482
v -0.260165 -0.204979 -0.827840
v -0.078155 -0.169939 -0.891669
v 0.111367 -0.127632 -0.918518
v -0.117350 0.980874 -0.070637
v 0.301118 -0.079687 -0.907354
v 0.111366 -0.127632 -0.918518
v -0.078157 -0.169939 -0.891669
v -0.260166 -0.204979 -0.827839
v -0.427667 -0.231407 -0.729481
v -0.574224 -0.248208 -0.600376
v -0.694204 -0.254734 -0.445483
v -0.782997 -0.250737 -0.270757
v -0.837189 -0.236369 -0.082911
v -0.854700 -0.212182 0.110836
v -0.834854 -0.179106 0.303038
v -0.778417 -0.138413 0.486309
v -0.687555 -0.091665 0.653606
v -0.565761 -0.040659 0.798500
v -0.417716 0.012644 0.915422
v -0.249109 0.066196 0.999880
v -0.066418 0.117939 1.048627
v 0.123334 0.165885 1.059791
v 0.312857 0.208191 1.032942
v 0.494866 0.243232 0.969112
v 0.662368 0.269660 0.870754
v 0.808925 0.286460 0.741648
v 0.928905 0.292987 0.586756
v 1.017697 0.288990 0.412029
v 1.071890 0.274621 0.224183
v 1.089399 0.250435 0.030436
v 1.069554 0.217359 -0.161766
v 1.013116 0.176665 -0.345037
v 0.922254 0.129917 -0.512334
v 0.800460 0.078912 -0.657227
v 0.652415 0.025608 -0.774149
v 0.483807 -0.027944 -0.858607
v 0.352049 -0.942621 0.211909
vt 0.250000 0.490000
vt 0.250000 0.250000
vt 0.296822 0.485388
vt 0.341844 0.471731
vt 0.383337 0.449553
vt 0.419706 0.419706
vt 0.449553 0.383337
vt 0.471731 0.341844
vt 0.485388 0.296822
vt 0.490000 0.250000
vt 0.485388 0.203178
vt 0.471731 0.158156
vt 0.449553 0.116663
vt 0.419706 0.080294
vt 0.383337 0.050447
vt 0.341844 0.028269
vt 0.296822 0.014612
vt 0.250000 0.010000
vt 0.203178 0.014612
vt 0.158156 0.028269
vt 0.116663 0.050447
vt 0.080294 0.080294
vt 0.050447 0.116663
vt 0.028269 0.158156
vt 0.014611 0.203179
vt 0.010000 0.250000
vt 0.014612 0.296822
vt 0.028269 0.341844
vt 0.050447 0.383337
vt 0.080295 0.419706
vt 0.116663 0.449553
vt 0.158156 0.471731
vt 0.750000 0.490000
vt 0.796822 0.485388
vt 0.841844 0.471731
vt 0.883337 0.449553
vt 0.919706 0.419706
vt 0.949553 0.383337
vt 0.971731 0.341844
vt 0.985388 0.296822
vt 0.990000 0.250000
vt 0.985388 0.203178
vt 0.971731 0.158156
vt 0.949553 0.116663
vt 0.919706 0.080294
vt 0.883337 0.050447
vt 0.841844 0.028269
vt 0.796822 0.014612
vt 0.750000 0.010000
vt 0.703178 0.014612
vt 0.658156 0.028269
vt 0.616663 0.050447
vt 0.580294 0.080294
vt 0.550447 0.116663
vt 0.528269 0.158156
vt 0.514611 0.203179
vt 0.510000 0.250000
vt 0.514612 0.296822
vt 0.528269 0.341844
vt 0.550447 0.383337
vt 0.580295 0.419706
vt 0.616663 0.449553
vt 0.658156 0.471731
vt 0.703179 0.485389
vt 0.203179 0.485389
vt 0.250000 0.490000
vt 0.250000 0.250000
vt 0.296822 0.485388
vt 0.341844 0.471731
vt 0.383337 0.449553
vt 0.419706 0.419706
vt 0.449553 0.383337
vt 0.471731 0.341844
vt 0.485388 0.296822
vt 0.490000 0.250000
vt 0.485388 0.203178
vt 0.471731 0.158156
vt 0.449553 0.116663
vt 0.419706 0.080294
vt 0.383337 0.050447
vt 0.341844 0.028269
vt 0.296822 0.014612
vt 0.250000 0.010000
vt 0.203178 0.014612
vt 0.158156 0.028269
vt 0.116663 0.050447
vt 0.080294 0.080294
vt 0.050447 0.116663
vt 0.028269 0.158156
vt 0.014611 0.203179
vt 0.010000 0.250000
vt 0.014612 0.296822
vt 0.028269 0.341844
vt 0.050447 0.383337
vt 0.080295 0.419706
vt 0.116663 0.449553
vt 0.158156 0.471731
vt 0.750000 0.490000
vt 0.796822 0.485388
vt 0.841844 0.471731
vt 0.883337 0.449553
vt 0.919706 0.419706
vt 0.949553 0.383337
vt 0.971731 0.341844
vt 0.985388 0.296822
vt 0.990000 0.250000
vt 0.985388 0.203178
vt 0.971731 0.158156
vt 0.949553 0.116663
vt 0.919706 0.080294
vt 0.883337 0.050447
vt 0.841844 0.028269
vt 0.796822 0.014612
vt 0.750000 0.010000
vt 0.703178 0.014612
vt 0.658156 0.028269
vt 0.616663 0.050447
vt 0.580294 0.080294
vt 0.550447 0.116663
vt 0.528269 0.158156
vt 0.514611 0.203179
vt 0.510000 0.250000
vt 0.514612 0.296822
vt 0.528269 0.341844
vt 0.550447 0.383337
vt 0.580295 0.419706
vt 0.616663 0.449553
vt 0.658156 0.471731
vt 0.703179 0.485389
vt 0.203179 0.485389
vn 0.2565 -0.4418 -0.8596
vn -0.2347 0.9617 -0.1413
vn 0.4267 -0.3936 -0.8142
vn 0.5838 -0.3437 -0.7355
vn 0.7217 -0.2941 -0.6266
vn 0.8351 -0.2466 -0.4917
vn 0.9198 -0.2030 -0.3358
vn 0.9724 -0.1651 -0.1651
vn 0.9908 -0.1343 0.0139
vn 0.9745 -0.1118 0.1944
vn 0.9240 -0.0984 0.3694
vn 0.8413 -0.0947 0.5322
vn 0.7295 -0.1007 0.6764
vn 0.5930 -0.1164 0.7967
vn 0.4370 -0.1410 0.8883
vn 0.2675 -0.1737 0.9478
vn 0.0909 -0.2130 0.9728
vn -0.0858 -0.2577 0.9624
vn -0.2560 -0.3059 0.9170
vn -0.4130 -0.3558 0.8383
vn -0.5510 -0.4055 0.7294
vn -0.6644 -0.4530 0.5944
vn -0.7490 -0.4965 0.4386
vn -0.8016 -0.5344 0.2679
vn -0.8201 -0.5652 0.0888
vn -0.8038 -0.5878 -0.0916
vn -0.7533 -0.6012 -0.2666
vn -0.6706 -0.6049 -0.4294
vn -0.5588 -0.5988 -0.5737
vn -0.4223 -0.5831 -0.6939
vn -0.2663 -0.5585 -0.7855
vn -0.0967 -0.5259 -0.8450
vn 0.0798 -0.4865 -0.8700
vn 0.0858 0.2577 -0.9624
vn 0.2347 -0.9617 0.1413
vn -0.0909 0.2130 -0.9728
vn -0.2675 0.1737 -0.9478
vn -0.4370 0.1410 -0.8883
vn -0.5930 0.1164 -0.7967
vn -0.7295 0.1007 -0.6764
vn -0.8413 0.0947 -0.5322
vn -0.9240 0.0984 -0.3694
vn -0.9745 0.1118 -0.1944
vn -0.9908 0.1343 -0.0139
vn -0.9724 0.1651 0.1651
vn -0.9198 0.2030 0.3358
vn -0.8351 0.2466 0.4917
vn -0.7217 0.2941 0.6266
vn -0.5838 0.3437 0.7355
vn -0.4267 0.3936 0.8142
vn -0.2565 0.4418 0.8596
vn -0.0798 0.4865 0.8700
vn 0.0967 0.5259 0.8450
vn 0.2663 0.5585 0.7855
vn 0.4223 0.5831 0.6939
vn 0.5588 0.5988 0.5737
vn 0.6706 0.6049 0.4294
vn 0.7533 0.6012 0.2666
vn 0.8038 0.5878 0.0916
vn 0.8201 0.5652 -0.0888
vn 0.8016 0.5344 -0.2679
vn 0.7490 0.4965 -0.4386
vn 0.6644 0.4530 -0.5944
vn 0.5510 0.4055 -0.7294
vn 0.4130 0.3558 -0.8383
vn 0.2560 0.3059 -0.9170
usemtl None
s 1
f 1/1/1 33/2/2 2/3/3
f 2/3/3 33/2/2 3/4/4
f 3/4/4 33/2/2 4/5/5
f 4/5/5 33/2/2 5/6/6
f 5/6/6 33/2/2 6/7/7
f 6/7/7 33/2/2 7/8/8
f 7/8/8 33/2/2 8/9/9
f 8/9/9 33/2/2 9/10/10
f 9/10/10 33/2/2 10/11/11
f 10/11/11 33/2/2 11/12/12
f 11/12/12 33/2/2 12/13/13
f 12/13/13 33/2/2 13/14/14
f 13/14/14 33/2/2 14/15/15
f 14/15/15 33/2/2 15/16/16
f 15/16/16 33/2/2 16/17/17
f 16/17/17 33/2/2 17/18/18
f 17/18/18 33/2/2 18/19/19
f 18/19/19 33/2/2 19/20/20
f 19/20/20 33/2/2 20/21/21
f 20/21/21 33/2/2 21/22/22
f 21/22/22 33/2/2 22/23/23
f 22/23/23 33/2/2 23/24/24
f 23/24/24 33/2/2 24/25/25
f 24/25/25 33/2/2 25/26/26
f 25/26/26 33/2/2 26/27/27
f 26/27/27 33/2/2 27/28/28
f 27/28/28 33/2/2 28/29/29
f 28/29/29 33/2/2 29/30/30
f 29/30/30 33/2/2 30/31/31
f 30/31/31 33/2/2 31/32/32
f 1/33/1 2/34/3 3/35/4 4/36/5 5/37/6 6/38/7 7/39/8 8/40/9 9/41/10 10/42/11 11/43/12 12/44/13 13/45/14 14/46/15 15/47/16 16/48/17 17/49/18 18/50/19 19/51/20 20/52/21 21/53/22 22/54/23 23/55/24 24/56/25 25/57/26 26/58/27 27/59/28 28/60/29 29/61/30 30/62/31 31/63/32 32/64/33
f 31/32/32 33/2/2 32/65/33
f 32/65/33 33/2/2 1/1/1
f 34/66/34 66/67/35 35/68/36
f 35/68/36 66/67/35 36/69/37
f 36/69/37 66/67/35 37/70/38
f 37/70/38 66/67/35 38/71/39
f 38/71/39 66/67/35 39/72/40
f 39/72/40 66/67/35 40/73/41
f 40/73/41 66/67/35 41/74/42
f 41/74/42 66/67/35 42/75/43
f 42/75/43 66/67/35 43/76/44
f 43/76/44 66/67/35 44/77/45
f 44/77/45 66/67/35 45/78/46
f 45/78/46 66/67/35 46/79/47
f 46/79/47 66/67/35 47/80/48
f 47/80/48 66/67/35 48/81/49
f 48/81/49 66/67/35 49/82/50
f 49/82/50 66/67/35 50/83/51
f 50/83/51 66/67/35 51/84/52
f 51/84/52 66/67/35 52/85/53
f 52/85/53 66/67/35 53/86/54
f 53/86/54 66/67/35 54/87/55
f 54/87/55 66/67/35 55/88/56
f 55/88/56 66/67/35 56/89/57
f 56/89/57 66/67/35 57/90/58
f 57/90/58 66/67/35 58/91/59
f 58/91/59 66/67/35 59/92/60
f 59/92/60 66/67/35 60/93/61
f 60/93/61 66/67/35 61/94/62
f 61/94/62 66/67/35 62/95/63
f 62/95/63 66/67/35 63/96/64
f 63/96/64 66/67/35 64/97/65
f 34/98/34 35/99/36 36/100/37 37/101/38 38/102/39 39/103/40 40/104/41 41/105/42 42/106/43 43/107/44 44/108/45 45/109/46 46/110/47 47/111/48 48/112/49 49/113/50 50/114/51 51/115/52 52/116/53 53/117/54 54/118/55 55/119/56 56/120/57 57/121/58 58/122/59 59/123/60 60/124/61 61/125/62 62/126/63 63/127/64 64/128/65 65/129/66
f 64/97/65 66/67/35 65/130/66
f 65/130/66 66/67/35 34/66/34
